<svg width="25" height="24" viewBox="0 0 25 24" fill="none" xmlns="http://www.w3.org/2000/svg">
<path d="M12.0077 5.96497C8.60102 5.96497 5.85319 8.59439 5.85319 11.8542C5.85319 15.1141 8.60102 17.7435 12.0077 17.7435C15.4143 17.7435 18.1622 15.1141 18.1622 11.8542C18.1622 8.59439 15.4143 5.96497 12.0077 5.96497ZM12.0077 15.683C9.80621 15.683 8.00646 13.966 8.00646 11.8542C8.00646 9.74252 9.80085 8.02545 12.0077 8.02545C14.2145 8.02545 16.0089 9.74252 16.0089 11.8542C16.0089 13.966 14.2092 15.683 12.0077 15.683ZM19.8494 5.72407C19.8494 6.48778 19.2067 7.09773 18.4139 7.09773C17.6158 7.09773 16.9784 6.48266 16.9784 5.72407C16.9784 4.96549 17.6212 4.35042 18.4139 4.35042C19.2067 4.35042 19.8494 4.96549 19.8494 5.72407ZM23.9256 7.11823C23.8346 5.27815 23.3954 3.64822 21.9866 2.30532C20.5833 0.962425 18.8799 0.542128 16.957 0.449868C14.9751 0.342231 9.03489 0.342231 7.05302 0.449868C5.13544 0.537003 3.43211 0.957299 2.02338 2.3002C0.614646 3.64309 0.180778 5.27302 0.0843631 7.1131C-0.028121 9.00956 -0.028121 14.6938 0.0843631 16.5903C0.175422 18.4303 0.614646 20.0603 2.02338 21.4032C3.43211 22.7461 5.13008 23.1664 7.05302 23.2586C9.03489 23.3663 14.9751 23.3663 16.957 23.2586C18.8799 23.1715 20.5833 22.7512 21.9866 21.4032C23.39 20.0603 23.8292 18.4303 23.9256 16.5903C24.0381 14.6938 24.0381 9.01469 23.9256 7.11823ZM21.3653 18.6251C20.9475 19.6297 20.1387 20.4037 19.0835 20.8086C17.5033 21.4083 13.7539 21.2699 12.0077 21.2699C10.2615 21.2699 6.50667 21.4032 4.93189 20.8086C3.88204 20.4088 3.07323 19.6349 2.65007 18.6251C2.02338 17.1131 2.168 13.5252 2.168 11.8542C2.168 10.1833 2.02873 6.59029 2.65007 5.08338C3.06787 4.07877 3.87669 3.30481 4.93189 2.89989C6.51203 2.3002 10.2615 2.43859 12.0077 2.43859C13.7539 2.43859 17.5087 2.30532 19.0835 2.89989C20.1333 3.29968 20.9421 4.07364 21.3653 5.08338C21.992 6.59542 21.8474 10.1833 21.8474 11.8542C21.8474 13.5252 21.992 17.1182 21.3653 18.6251Z" fill="white"/>
</svg>
