<svg width="26" height="20" viewBox="0 0 26 20" fill="none" xmlns="http://www.w3.org/2000/svg">
<path d="M23.3275 5.21171C23.344 5.42451 23.344 5.63735 23.344 5.85014C23.344 12.3407 17.9823 19.8193 8.18277 19.8193C5.16371 19.8193 2.35915 19.0137 0 17.6153C0.428951 17.6609 0.841347 17.6761 1.2868 17.6761C3.77789 17.6761 6.07107 16.9009 7.9023 15.5784C5.55965 15.5328 3.59644 14.1192 2.92003 12.1735C3.25001 12.2191 3.57994 12.2495 3.92642 12.2495C4.40483 12.2495 4.8833 12.1887 5.3287 12.0823C2.88708 11.6263 1.0558 9.65024 1.0558 7.26378V7.203C1.76516 7.56781 2.59011 7.79581 3.46441 7.82618C2.02913 6.94454 1.08881 5.43971 1.08881 3.73725C1.08881 2.82524 1.35272 1.98922 1.81468 1.2596C4.43779 4.23888 8.38072 6.1845 12.802 6.39734C12.7195 6.03253 12.67 5.65256 12.67 5.27254C12.67 2.56683 15.0457 0.362793 17.9987 0.362793C19.533 0.362793 20.9188 0.955608 21.8921 1.91324C23.0964 1.70044 24.2512 1.29001 25.2741 0.727606C24.8781 1.86766 24.0368 2.82529 22.9315 3.43327C24.0038 3.32691 25.0432 3.05325 26 2.67327C25.2742 3.64606 24.3668 4.51245 23.3275 5.21171Z" fill="white"/>
</svg>
